<?xml version="1.0" standalone="no"?>
<!DOCTYPE svg PUBLIC "-//W3C//DTD SVG 20010904//EN"
 "http://www.w3.org/TR/2001/REC-SVG-20010904/DTD/svg10.dtd">
<svg version="1.0" xmlns="http://www.w3.org/2000/svg"
 width="260.000000pt" height="260.000000pt" viewBox="0 0 260.000000 260.000000"
 preserveAspectRatio="xMidYMid meet">
<metadata>
Created by potrace 1.14, written by Peter Selinger 2001-2017
</metadata>
<g transform="translate(0.000000,260.000000) scale(0.100000,-0.100000)"
fill="#000000" stroke="none">
<path d="M1530 2470 c-30 -5 -79 -11 -108 -15 -29 -3 -99 -14 -155 -25 -56
-10 -129 -22 -162 -26 -33 -3 -100 -15 -150 -25 -49 -11 -101 -22 -115 -24
-109 -22 -243 -64 -310 -97 -151 -75 -283 -197 -339 -314 l-33 -69 -1 -535
c-1 -294 1 -553 6 -575 4 -22 9 -53 12 -70 28 -192 39 -233 92 -340 69 -141
90 -166 139 -172 22 -2 53 -7 69 -11 34 -9 1520 -9 1550 0 11 3 54 9 95 13 41
4 85 11 97 16 31 12 52 48 57 101 3 25 11 85 20 134 8 49 23 136 31 194 9 58
19 116 21 130 3 14 11 65 20 114 8 48 18 96 23 105 7 14 16 55 27 121 1 8 7
41 13 72 23 111 40 316 41 475 0 103 -11 144 -110 418 -32 88 -63 176 -70 195
-6 19 -17 46 -25 60 l-14 25 -1 -27 c0 -14 15 -70 34 -125 19 -54 41 -120 49
-148 9 -27 34 -103 56 -168 44 -128 51 -168 27 -148 -8 7 -18 26 -21 43 -7 30
-112 312 -139 373 -7 17 -24 54 -36 83 -30 66 -61 101 -130 143 l-55 34 -168
-2 c-547 -7 -1142 -102 -1370 -221 -97 -50 -99 -50 -47 -8 62 50 116 73 234
102 56 14 108 27 116 31 29 12 111 29 225 47 50 8 161 26 249 40 227 37 336
45 596 46 127 1 230 3 230 5 0 2 -10 9 -22 16 -26 14 -467 21 -548 9z m-199
-649 c76 -70 170 -175 195 -217 7 -10 15 -16 19 -12 14 14 -31 77 -124 171
l-96 98 51 -20 c88 -34 283 -116 404 -170 109 -48 193 -71 207 -57 4 4 -42 57
-103 118 -60 61 -100 107 -89 103 11 -4 90 -34 175 -67 85 -32 215 -88 289
-124 73 -36 135 -63 137 -61 8 8 -48 102 -89 152 l-42 50 70 -39 c39 -22 78
-44 87 -50 26 -16 31 -79 19 -222 -15 -168 -29 -267 -47 -331 -32 -115 -103
-468 -118 -588 -23 -184 -49 -327 -60 -331 -6 -2 -107 -12 -225 -21 -208 -18
-306 -19 -1016 -15 -143 0 -291 -1 -330 -3 -108 -5 -109 -5 -158 98 -59 121
-135 339 -152 435 -16 90 -35 481 -35 729 l0 173 64 -36 c35 -19 67 -31 70
-26 5 8 -13 86 -29 125 -9 22 -2 22 88 -2 39 -11 113 -27 162 -36 352 -66 401
-79 434 -119 24 -29 32 -5 9 27 -50 67 -160 165 -261 232 -58 38 -105 70 -104
72 2 1 75 -23 162 -53 358 -124 586 -197 594 -189 3 4 1 9 -5 13 -6 4 -29 32
-51 63 -23 31 -79 90 -125 131 -46 41 -99 90 -118 108 l-35 32 48 -33 c27 -18
84 -67 128 -108z m498 -66 c42 -44 85 -90 95 -102 17 -21 17 -21 -3 -16 -33 9
-241 249 -241 279 0 10 14 -3 36 -32 20 -27 71 -85 113 -129z m447 -18 c71
-84 85 -107 65 -107 -15 0 -146 153 -176 205 l-28 50 32 -30 c18 -16 66 -70
107 -118z m-1566 115 c0 -5 50 -42 112 -82 62 -41 139 -100 172 -132 72 -68
69 -78 -4 -13 -28 25 -97 76 -153 114 -101 68 -162 121 -139 121 7 0 12 -4 12
-8z m-335 -155 c30 -65 44 -123 26 -113 -13 9 -71 132 -71 152 0 31 22 11 45
-39z"/>
<path d="M1585 1552 c-6 -4 -11 -26 -13 -48 l-2 -42 67 -11 c38 -7 106 -21
153 -32 47 -11 132 -26 190 -34 58 -8 123 -21 144 -30 28 -12 41 -13 46 -5 5
8 14 8 35 0 23 -9 48 -7 34 3 -26 19 -166 78 -203 87 -27 6 -74 19 -105 29
-79 26 -229 68 -271 76 -19 4 -42 8 -50 11 -8 2 -20 0 -25 -4z m160 -100 c-6
-7 -34 11 -29 19 3 5 11 3 19 -4 7 -6 12 -13 10 -15z m186 -40 c-7 -2 -18 1
-23 6 -8 8 -4 9 13 5 13 -4 18 -8 10 -11z m144 -12 c13 -6 15 -9 5 -9 -8 0
-22 4 -30 9 -18 12 -2 12 25 0z"/>
<path d="M813 1539 c-13 -4 -50 -10 -83 -11 -33 -2 -60 -7 -60 -11 0 -5 -4 -6
-9 -3 -5 3 -22 -1 -37 -9 -16 -8 -41 -15 -56 -15 -15 0 -31 -6 -35 -14 -8 -14
-92 -46 -170 -66 -41 -10 -59 -30 -28 -30 19 0 19 -9 -2 -32 -15 -17 -15 -18
10 -18 14 0 27 4 29 9 2 5 19 12 38 15 70 11 288 55 351 71 117 29 129 35 128
58 0 32 -48 67 -76 56z m27 -29 c0 -5 -2 -10 -4 -10 -3 0 -8 5 -11 10 -3 6 -1
10 4 10 6 0 11 -4 11 -10z m-176 -79 c3 -5 -6 -11 -21 -14 -26 -5 -26 -4 -8 9
22 17 22 17 29 5z m-79 -21 c-3 -5 -12 -10 -18 -10 -7 0 -6 4 3 10 19 12 23
12 15 0z m-135 -16 c0 -8 -4 -12 -10 -9 -5 3 -10 10 -10 16 0 5 5 9 10 9 6 0
10 -7 10 -16z"/>
<path d="M1190 1435 c0 -3 8 -22 19 -43 10 -20 26 -73 36 -117 22 -103 45
-156 123 -289 71 -120 71 -113 6 -152 -33 -20 -6 -27 28 -7 52 30 48 56 -22
173 -67 111 -101 192 -120 285 -14 68 -48 155 -61 155 -5 0 -9 -2 -9 -5z"/>
<path d="M1600 1325 c0 -3 8 -13 18 -23 23 -24 90 -100 127 -146 16 -20 33
-36 38 -36 4 0 -16 28 -45 63 -29 34 -66 79 -82 99 -25 33 -56 56 -56 43z"/>
<path d="M1675 1310 c3 -5 24 -13 45 -16 35 -6 39 -10 42 -38 6 -66 129 -86
136 -22 3 25 6 27 30 21 15 -4 38 -7 52 -7 23 0 23 -1 5 -11 -54 -29 -156 -99
-151 -104 5 -6 176 98 176 107 -1 18 -21 29 -65 34 -89 12 -119 17 -180 32
-71 16 -98 18 -90 4z"/>
<path d="M813 1232 c-51 -54 -154 -182 -146 -182 5 0 22 16 38 36 38 47 104
122 128 147 10 10 16 21 13 24 -2 3 -17 -8 -33 -25z"/>
<path d="M680 1235 c-56 -13 -87 -19 -175 -31 -44 -5 -64 -16 -65 -34 0 -9
171 -112 176 -107 3 3 -11 16 -33 30 -135 85 -134 85 -111 85 13 -1 40 2 61 6
35 7 37 6 37 -18 0 -32 34 -56 81 -56 40 0 67 22 71 60 3 21 -2 26 -32 30 -39
6 -28 13 42 25 42 7 62 25 26 24 -13 0 -48 -7 -78 -14z"/>
<path d="M1045 891 c19 -32 231 -119 248 -102 6 6 -7 14 -34 21 -24 7 -78 29
-121 51 -77 39 -104 47 -93 30z"/>
<path d="M895 550 c-4 -6 14 -10 48 -10 127 0 423 -66 520 -115 29 -15 47 -20
45 -12 -11 35 -196 92 -408 127 -138 22 -196 25 -205 10z"/>
<path d="M1117 444 c-13 -14 5 -24 42 -24 21 0 59 -6 85 -14 34 -10 46 -11 43
-3 -5 17 -157 54 -170 41z"/>
</g>
</svg>
