<?xml version="1.0" standalone="no"?>
<!DOCTYPE svg PUBLIC "-//W3C//DTD SVG 20010904//EN"
 "http://www.w3.org/TR/2001/REC-SVG-20010904/DTD/svg10.dtd">
<svg version="1.0" xmlns="http://www.w3.org/2000/svg"
 width="256.000000pt" height="256.000000pt" viewBox="0 0 256.000000 256.000000"
 preserveAspectRatio="xMidYMid meet">
<metadata>
Created by potrace 1.14, written by Peter Selinger 2001-2017
</metadata>
<g transform="translate(0.000000,256.000000) scale(0.100000,-0.100000)"
fill="#000000" stroke="none">
<path d="M1084 2469 c-299 -27 -692 -184 -709 -283 -19 -112 -27 -257 -31
-594 -7 -449 -4 -472 71 -707 13 -38 33 -112 44 -163 58 -249 139 -430 235
-526 77 -76 116 -96 215 -107 42 -5 90 -12 106 -14 86 -14 274 -16 400 -5 77
7 186 13 241 14 99 2 104 3 162 39 100 62 133 101 160 192 57 187 123 459 152
625 12 69 24 135 26 148 3 12 18 73 34 135 16 62 31 131 33 153 6 50 16 107
28 164 5 25 11 61 13 80 3 19 10 69 17 110 7 41 13 136 13 211 l1 135 -39 65
c-57 92 -119 153 -205 203 -92 53 -144 75 -191 82 -19 3 -43 7 -52 10 -109 32
-525 50 -724 33z m963 -409 c50 -30 71 -146 39 -209 -25 -47 -83 -91 -119 -91
-40 0 -84 41 -93 87 -14 70 44 201 99 223 32 13 39 12 74 -10z m-1327 -45 c54
-28 67 -85 41 -185 -31 -115 -95 -177 -159 -151 -48 20 -61 53 -64 162 -3 90
20 141 76 169 49 24 68 25 106 5z m1406 -470 c-26 -80 -51 -145 -57 -145 -16
0 -10 27 25 118 18 48 41 109 51 135 9 27 19 46 22 43 3 -3 -16 -71 -41 -151z
m-137 113 c-17 -64 -47 -132 -58 -136 -14 -5 -14 13 -1 36 5 9 21 43 34 75 27
63 39 75 25 25z m-280 -21 c18 -15 75 -136 101 -216 12 -36 30 -82 42 -104 11
-22 30 -72 43 -111 12 -39 26 -78 30 -88 9 -22 -53 -44 -301 -107 -169 -42
-206 -48 -244 -41 -25 5 -67 11 -95 15 -27 4 -57 8 -65 9 -8 2 -37 6 -65 10
-27 5 -113 28 -190 52 -77 23 -166 50 -197 59 l-58 16 30 59 c57 112 176 282
260 370 68 72 94 79 314 86 88 3 163 8 166 11 9 9 215 -9 229 -20z m334 -98
c-44 -108 -59 -136 -67 -128 -4 3 9 39 27 80 19 41 42 93 53 117 36 83 25 24
-13 -69z m-1312 -32 c-22 -47 -45 -88 -50 -91 -5 -4 -12 -19 -16 -35 -6 -29
-31 -59 -40 -49 -9 9 35 101 88 184 29 45 53 80 55 79 2 -2 -15 -41 -37 -88z
m-224 -4 c-14 -32 -30 -75 -37 -95 -6 -21 -18 -38 -25 -38 -17 0 -10 26 30
109 18 36 36 77 41 91 6 18 9 21 11 8 2 -9 -7 -42 -20 -75z m103 -27 c-18 -53
-36 -96 -41 -96 -5 0 -9 5 -9 10 0 14 74 189 78 185 2 -2 -11 -47 -28 -99z"/>
</g>
</svg>
